<svg width="1927" height="532" viewBox="0 0 1927 532" fill="none" xmlns="http://www.w3.org/2000/svg">
<path d="M98.8271 266.609C95.8274 142.826 227.914 54.7678 347.05 129.876C284.892 62.5389 152.806 26.2803 33.6691 129.876C12.9497 173.904 3.05176e-05 204.984 3.05176e-05 264.552C4.77015 384.222 82.8777 497.646 238.273 518.365C380.72 531.315 515.394 414.77 517.986 264.552L386.309 266.609C334.508 271.791 303.019 290.453 269.353 344.84C311.061 357.081 337.438 362.873 386.309 352.077C306.019 471.215 108.703 421.557 98.8271 266.609Z" fill="url(#paint0_linear_43_2)"/>
<path d="M385.9 171.315C271.943 36.6384 132.087 50.5696 33.67 129.875C108.778 -4.80027 336.692 -66.9588 466.188 103.976C494.677 140.236 435.109 212.754 385.9 171.315Z" fill="url(#paint1_linear_43_2)"/>
<path d="M557.439 364.826C557.439 362.538 557.127 358.586 556.503 352.97C555.879 347.355 555.047 341.011 554.007 333.939C553.175 326.659 552.239 319.483 551.199 312.412C550.159 305.132 549.015 298.684 547.767 293.068C546.727 287.244 545.791 283.085 544.959 280.589C542.879 274.349 544.023 269.981 548.391 267.485C552.967 264.781 559.311 263.013 567.422 262.181C575.534 261.349 581.358 261.973 584.894 264.053C588.638 265.925 590.51 266.861 590.51 266.861C593.629 263.741 598.725 261.557 605.797 260.309C613.077 259.061 620.669 258.541 628.572 258.749C638.764 258.957 646.148 260.517 650.724 263.429C655.299 266.341 657.587 269.461 657.587 272.789C657.587 275.285 657.275 277.157 656.651 278.405C656.027 279.653 653.532 280.901 649.164 282.149C645.004 283.189 637.412 285.06 626.388 287.764C619.941 289.22 615.157 292.756 612.037 298.372C608.917 303.78 606.941 310.124 606.109 317.403C605.485 324.475 605.485 331.547 606.109 338.619C606.733 345.483 607.461 351.306 608.293 356.09C609.125 360.666 609.541 363.162 609.541 363.578C609.541 363.994 609.645 365.45 609.853 367.946C610.269 370.234 609.957 372.834 608.917 375.746C608.085 378.45 605.901 380.841 602.365 382.921C598.829 385.001 593.213 386.041 585.518 386.041C577.822 386.041 571.998 385.001 568.046 382.921C564.094 380.633 561.39 378.138 559.935 375.434C558.479 372.73 557.647 370.338 557.439 368.258C557.439 365.97 557.439 364.826 557.439 364.826ZM800.23 291.82C799.606 302.22 796.694 310.644 791.494 317.091C786.295 323.331 779.951 328.115 772.463 331.443C765.183 334.563 757.904 336.747 750.624 337.995C743.344 339.035 737.208 339.555 732.216 339.555C727.433 339.555 725.041 339.555 725.041 339.555C726.289 346.835 728.056 352.034 730.344 355.154C732.632 358.274 735.128 360.042 737.832 360.458C740.744 360.874 743.448 360.666 745.944 359.834C748.44 358.794 750.416 357.65 751.872 356.402C753.536 355.154 754.368 354.53 754.368 354.53C754.368 354.53 755.512 353.594 757.8 351.722C760.087 349.85 763.623 348.082 768.407 346.419C773.399 344.547 779.639 343.611 787.127 343.611C795.654 343.611 801.374 344.755 804.286 347.043C807.406 349.122 808.862 351.618 808.654 354.53C808.654 357.234 808.03 359.73 806.782 362.018C805.742 364.098 805.222 365.138 805.222 365.138C805.222 365.138 804.286 366.178 802.414 368.258C800.75 370.13 797.63 372.418 793.054 375.122C788.479 377.826 782.135 380.321 774.023 382.609C765.911 384.689 755.512 385.833 742.824 386.041C730.552 386.249 720.257 384.585 711.937 381.049C703.617 377.514 696.753 372.938 691.346 367.322C685.938 361.498 681.778 355.466 678.866 349.226C676.162 342.779 674.186 336.851 672.938 331.443C671.898 325.827 671.378 321.459 671.378 318.339C671.378 315.22 671.586 311.164 672.002 306.172C672.626 301.18 673.978 295.98 676.058 290.572C678.346 284.956 681.778 279.653 686.354 274.661C690.93 269.669 697.169 265.613 705.073 262.493C713.185 259.373 723.481 257.709 735.96 257.501C751.56 257.293 763.727 258.645 772.463 261.557C781.199 264.469 787.543 268.005 791.494 272.165C795.446 276.325 797.838 280.277 798.67 284.021C799.71 287.764 800.23 290.364 800.23 291.82ZM720.673 318.027C733.36 316.987 742.824 314.284 749.064 309.916C755.304 305.548 758.944 300.66 759.983 295.252C761.023 289.844 759.983 285.268 756.864 281.525C753.952 277.573 749.48 275.805 743.448 276.221C737.416 276.429 732.84 278.717 729.72 283.085C726.601 287.244 724.417 292.132 723.169 297.748C721.921 303.156 721.193 307.94 720.985 312.1C720.777 316.052 720.673 318.027 720.673 318.027ZM953.556 291.82C952.932 302.22 950.02 310.644 944.82 317.091C939.621 323.331 933.277 328.115 925.789 331.443C918.509 334.563 911.23 336.747 903.95 337.995C896.67 339.035 890.534 339.555 885.542 339.555C880.759 339.555 878.367 339.555 878.367 339.555C879.615 346.835 881.383 352.034 883.67 355.154C885.958 358.274 888.454 360.042 891.158 360.458C894.07 360.874 896.774 360.666 899.27 359.834C901.766 358.794 903.742 357.65 905.198 356.402C906.862 355.154 907.694 354.53 907.694 354.53C907.694 354.53 908.838 353.594 911.126 351.722C913.413 349.85 916.949 348.082 921.733 346.419C926.725 344.547 932.965 343.611 940.453 343.611C948.98 343.611 954.7 344.755 957.612 347.043C960.732 349.122 962.188 351.618 961.98 354.53C961.98 357.234 961.356 359.73 960.108 362.018C959.068 364.098 958.548 365.138 958.548 365.138C958.548 365.138 957.612 366.178 955.74 368.258C954.076 370.13 950.956 372.418 946.38 375.122C941.805 377.826 935.461 380.321 927.349 382.609C919.237 384.689 908.838 385.833 896.15 386.041C883.878 386.249 873.583 384.585 865.263 381.049C856.943 377.514 850.08 372.938 844.672 367.322C839.264 361.498 835.104 355.466 832.192 349.226C829.488 342.779 827.512 336.851 826.264 331.443C825.224 325.827 824.704 321.459 824.704 318.339C824.704 315.22 824.912 311.164 825.328 306.172C825.952 301.18 827.304 295.98 829.384 290.572C831.672 284.956 835.104 279.653 839.68 274.661C844.256 269.669 850.496 265.613 858.399 262.493C866.511 259.373 876.807 257.709 889.286 257.501C904.886 257.293 917.053 258.645 925.789 261.557C934.525 264.469 940.869 268.005 944.82 272.165C948.772 276.325 951.164 280.277 951.996 284.021C953.036 287.764 953.556 290.364 953.556 291.82ZM873.999 318.027C886.686 316.987 896.15 314.284 902.39 309.916C908.63 305.548 912.27 300.66 913.309 295.252C914.349 289.844 913.309 285.268 910.19 281.525C907.278 277.573 902.806 275.805 896.774 276.221C890.742 276.429 886.166 278.717 883.046 283.085C879.927 287.244 877.743 292.132 876.495 297.748C875.247 303.156 874.519 307.94 874.311 312.1C874.103 316.052 873.999 318.027 873.999 318.027ZM1016.72 386.041C1016.72 386.041 1015.37 386.041 1012.66 386.041C1009.96 386.041 1006.84 385.625 1003.3 384.793C999.974 383.961 996.958 382.297 994.254 379.801C991.55 377.306 989.99 373.666 989.574 368.882C989.366 364.93 988.95 359.314 988.326 352.034C987.702 344.755 986.974 336.851 986.142 328.323C985.518 319.587 984.894 311.372 984.27 303.676C983.646 295.772 983.126 289.324 982.71 284.333C982.294 279.341 982.086 276.845 982.086 276.845C982.086 276.845 982.19 276.013 982.398 274.349C982.606 272.477 983.334 270.397 984.582 268.109C986.038 265.821 988.43 263.741 991.758 261.869C995.294 259.997 1000.18 258.957 1006.42 258.749C1012.66 258.541 1017.55 259.165 1021.08 260.621C1024.62 262.077 1027.12 263.845 1028.57 265.925C1030.24 267.797 1031.17 269.565 1031.38 271.229C1031.8 272.685 1032 273.413 1032 273.413C1032 273.413 1033.88 272.477 1037.62 270.605C1041.57 268.525 1046.56 266.445 1052.6 264.365C1058.84 262.285 1065.39 261.037 1072.25 260.621C1073.29 260.621 1075.27 260.621 1078.18 260.621C1081.3 260.621 1084.63 261.349 1088.16 262.805C1091.91 264.053 1095.55 266.549 1099.08 270.293C1102.83 274.037 1105.95 279.549 1108.44 286.828C1110.94 293.9 1112.39 303.26 1112.81 314.908C1113.43 329.467 1113.85 341.427 1114.06 350.786C1114.47 360.146 1114.16 367.426 1113.12 372.626C1112.29 377.618 1110.21 381.153 1106.88 383.233C1103.76 385.105 1098.77 386.041 1091.91 386.041C1085.25 386.041 1080.36 385.105 1077.24 383.233C1074.12 381.361 1072.15 379.177 1071.32 376.682C1070.48 373.978 1070.07 371.586 1070.07 369.506C1070.07 368.258 1070.28 364.93 1070.69 359.522C1071.11 353.906 1071.42 347.562 1071.63 340.491C1071.84 333.211 1071.73 326.139 1071.32 319.275C1071.11 312.204 1070.28 306.484 1068.82 302.116C1067.57 297.54 1065.49 295.356 1062.58 295.564C1059.04 295.772 1055.72 297.124 1052.6 299.62C1049.68 301.908 1047.08 304.612 1044.8 307.732C1042.51 310.644 1040.74 313.244 1039.49 315.532C1038.24 317.611 1037.62 318.651 1037.62 318.651L1040.74 365.762C1040.74 365.762 1040.74 366.802 1040.74 368.882C1040.74 370.962 1040.12 373.354 1038.87 376.058C1037.62 378.553 1035.23 380.841 1031.69 382.921C1028.36 385.001 1023.37 386.041 1016.72 386.041ZM1247.73 386.041C1240.03 386.041 1234.21 385.001 1230.26 382.921C1226.51 380.841 1224.02 378.45 1222.77 375.746C1221.52 373.042 1220.9 370.65 1220.9 368.57C1220.9 366.49 1220.9 365.45 1220.9 365.45L1217.15 230.046C1217.15 230.046 1217.05 229.006 1216.84 226.926C1216.63 224.846 1217.05 222.454 1218.09 219.751C1219.13 216.839 1221.31 214.343 1224.64 212.263C1227.97 209.975 1233.17 208.831 1240.24 208.831C1249.6 208.623 1256.67 209.975 1261.46 212.887C1266.24 215.591 1269.36 218.399 1270.82 221.311C1272.48 224.014 1273.31 225.366 1273.31 225.366L1309.19 290.572C1309.19 290.572 1310.02 288.7 1311.69 284.957C1313.56 281.005 1315.74 276.117 1318.24 270.293C1320.94 264.469 1323.65 258.541 1326.35 252.51C1329.05 246.478 1331.45 241.278 1333.53 236.91C1335.61 232.334 1336.96 229.422 1337.58 228.174C1338.62 226.094 1340.49 223.286 1343.2 219.751C1345.9 216.007 1349.75 212.575 1354.74 209.455C1359.94 206.335 1366.7 204.671 1375.02 204.463C1381.26 204.255 1386.04 204.983 1389.37 206.647C1392.7 208.103 1394.99 209.871 1396.24 211.951C1397.69 214.031 1398.52 215.903 1398.73 217.567C1398.94 219.231 1399.04 220.063 1399.04 220.063C1399.04 220.063 1399.04 222.766 1399.04 228.174C1399.04 233.374 1399.04 240.342 1399.04 249.078C1399.25 257.813 1399.36 267.381 1399.36 277.781C1399.36 288.18 1399.36 298.684 1399.36 309.292C1399.36 319.691 1399.36 329.259 1399.36 337.995C1399.56 346.731 1399.67 353.802 1399.67 359.21C1399.67 364.618 1399.67 367.426 1399.67 367.634C1399.67 367.842 1399.56 368.882 1399.36 370.754C1399.36 372.626 1398.63 374.81 1397.17 377.306C1395.72 379.593 1393.12 381.673 1389.37 383.545C1385.84 385.209 1380.53 386.041 1373.46 386.041C1366.39 386.041 1360.98 385.313 1357.24 383.857C1353.7 382.193 1351.21 380.425 1349.75 378.553C1348.29 376.474 1347.46 374.706 1347.25 373.25C1347.05 371.794 1346.94 371.066 1346.94 371.066C1346.94 371.066 1346.94 369.298 1346.94 365.762C1346.94 362.018 1346.94 357.442 1346.94 352.034C1347.15 346.419 1347.25 340.907 1347.25 335.499C1347.46 329.883 1347.57 325.203 1347.57 321.459C1347.57 317.715 1347.57 315.844 1347.57 315.844L1350.06 271.229L1333.84 305.86C1333.84 305.86 1333.21 307.004 1331.97 309.292C1330.93 311.58 1328.85 313.868 1325.73 316.155C1322.61 318.443 1317.93 319.691 1311.69 319.899C1305.65 320.107 1300.87 319.275 1297.34 317.403C1294.01 315.324 1291.62 313.348 1290.16 311.476C1288.91 309.396 1288.29 308.356 1288.29 308.356L1268.01 271.229C1268.01 271.229 1268.11 273.725 1268.32 278.717C1268.74 283.501 1269.15 289.844 1269.57 297.748C1269.98 305.444 1270.4 313.66 1270.82 322.395C1271.23 330.923 1271.54 339.035 1271.75 346.731C1272.17 354.218 1272.48 360.25 1272.69 364.826C1272.9 370.442 1271.75 374.81 1269.26 377.93C1266.76 380.841 1263.85 382.921 1260.52 384.169C1257.19 385.209 1254.18 385.833 1251.47 386.041C1248.98 386.041 1247.73 386.041 1247.73 386.041ZM1445.14 254.693C1445.14 254.693 1443.79 254.693 1441.08 254.693C1438.38 254.485 1435.15 253.861 1431.41 252.822C1427.87 251.574 1424.65 249.39 1421.74 246.27C1418.83 243.15 1417.27 238.47 1417.06 232.23C1416.85 225.99 1417.79 221.415 1419.87 218.503C1421.95 215.383 1424.55 213.303 1427.67 212.263C1430.79 211.015 1433.8 210.391 1436.71 210.391C1439.63 210.183 1441.71 209.975 1442.95 209.767C1444.2 209.559 1446.28 209.767 1449.19 210.391C1452.11 210.807 1455.12 211.951 1458.24 213.823C1461.36 215.487 1463.96 218.087 1466.04 221.623C1468.12 224.95 1468.95 229.422 1468.54 235.038C1468.12 240.446 1466.67 244.606 1464.17 247.518C1461.88 250.222 1459.18 252.094 1456.06 253.134C1453.15 253.965 1450.55 254.485 1448.26 254.693C1446.18 254.693 1445.14 254.693 1445.14 254.693ZM1434.22 366.698L1426.73 295.564C1426.73 295.564 1426.21 294.524 1425.17 292.444C1424.34 290.156 1423.71 288.596 1423.3 287.764C1423.09 287.14 1422.67 285.892 1422.05 284.021C1421.63 281.941 1422.15 279.757 1423.61 277.469C1425.27 275.181 1428.81 273.517 1434.22 272.477C1439.83 271.437 1445.66 271.125 1451.69 271.541C1457.72 271.957 1463.03 273.829 1467.6 277.157C1472.39 280.277 1475.3 285.788 1476.34 293.692C1477.17 299.516 1478 306.484 1478.83 314.596C1479.66 322.499 1480.39 330.299 1481.02 337.995C1481.85 345.483 1482.47 351.826 1482.89 357.026C1483.51 362.018 1483.82 364.514 1483.82 364.514C1483.82 364.514 1483.93 365.658 1484.14 367.946C1484.34 370.026 1484.03 372.522 1483.2 375.434C1482.37 378.138 1480.29 380.633 1476.96 382.921C1473.84 385.001 1468.75 386.041 1461.67 386.041C1454.6 386.041 1449.19 385.105 1445.45 383.233C1441.71 381.153 1439 378.865 1437.34 376.37C1435.88 373.874 1434.95 371.69 1434.53 369.818C1434.32 367.738 1434.22 366.698 1434.22 366.698ZM1531.12 198.223C1531.12 198.223 1532.47 198.327 1535.17 198.535C1537.88 198.535 1541 199.055 1544.53 200.095C1548.07 200.927 1551.19 202.487 1553.89 204.775C1556.59 207.063 1557.95 210.287 1557.95 214.447C1557.95 217.151 1558.05 222.663 1558.26 230.982C1558.47 239.302 1558.67 249.182 1558.88 260.621C1559.09 271.853 1559.3 283.501 1559.51 295.564C1559.92 307.42 1560.23 318.547 1560.44 328.947C1560.65 339.347 1560.75 347.77 1560.75 354.218C1560.96 360.666 1561.07 363.89 1561.07 363.89C1561.07 363.89 1561.07 365.034 1561.07 367.322C1561.07 369.402 1560.44 372.002 1559.19 375.122C1557.95 378.034 1555.55 380.633 1552.02 382.921C1548.48 385.001 1543.28 386.041 1536.42 386.041C1527.27 386.041 1520.61 384.897 1516.45 382.609C1512.29 380.113 1509.69 377.41 1508.65 374.498C1507.82 371.378 1507.51 368.986 1507.72 367.322C1507.92 366.49 1508.03 362.85 1508.03 356.402C1508.03 349.954 1507.92 341.843 1507.72 332.067C1507.72 322.291 1507.61 311.788 1507.4 300.556C1507.2 289.324 1506.99 278.301 1506.78 267.485C1506.57 256.461 1506.26 246.686 1505.84 238.158C1505.64 229.422 1505.43 222.974 1505.22 218.815C1504.8 212.991 1506.16 208.623 1509.28 205.711C1512.6 202.799 1516.35 200.927 1520.51 200.095C1524.88 199.055 1528.41 198.431 1531.12 198.223ZM1705.33 291.82C1704.71 302.22 1701.79 310.644 1696.59 317.091C1691.39 323.331 1685.05 328.115 1677.56 331.443C1670.28 334.563 1663 336.747 1655.72 337.995C1648.44 339.035 1642.31 339.555 1637.32 339.555C1632.53 339.555 1630.14 339.555 1630.14 339.555C1631.39 346.835 1633.16 352.034 1635.44 355.154C1637.73 358.274 1640.23 360.042 1642.93 360.458C1645.84 360.874 1648.55 360.666 1651.04 359.834C1653.54 358.794 1655.52 357.65 1656.97 356.402C1658.64 355.154 1659.47 354.53 1659.47 354.53C1659.47 354.53 1660.61 353.594 1662.9 351.722C1665.19 349.85 1668.72 348.082 1673.51 346.419C1678.5 344.547 1684.74 343.611 1692.23 343.611C1700.75 343.611 1706.47 344.755 1709.39 347.043C1712.51 349.122 1713.96 351.618 1713.75 354.53C1713.75 357.234 1713.13 359.73 1711.88 362.018C1710.84 364.098 1710.32 365.138 1710.32 365.138C1710.32 365.138 1709.39 366.178 1707.51 368.258C1705.85 370.13 1702.73 372.418 1698.15 375.122C1693.58 377.826 1687.23 380.321 1679.12 382.609C1671.01 384.689 1660.61 385.833 1647.92 386.041C1635.65 386.249 1625.36 384.585 1617.04 381.049C1608.72 377.514 1601.85 372.938 1596.45 367.322C1591.04 361.498 1586.88 355.466 1583.97 349.226C1581.26 342.779 1579.29 336.851 1578.04 331.443C1577 325.827 1576.48 321.459 1576.48 318.339C1576.48 315.22 1576.69 311.164 1577.1 306.172C1577.73 301.18 1579.08 295.98 1581.16 290.572C1583.45 284.956 1586.88 279.653 1591.45 274.661C1596.03 269.669 1602.27 265.613 1610.17 262.493C1618.28 259.373 1628.58 257.709 1641.06 257.501C1656.66 257.293 1668.83 258.645 1677.56 261.557C1686.3 264.469 1692.64 268.005 1696.59 272.165C1700.55 276.325 1702.94 280.277 1703.77 284.021C1704.81 287.764 1705.33 290.364 1705.33 291.82ZM1625.77 318.027C1638.46 316.987 1647.92 314.284 1654.16 309.916C1660.4 305.548 1664.04 300.66 1665.08 295.252C1666.12 289.844 1665.08 285.268 1661.96 281.525C1659.05 277.573 1654.58 275.805 1648.55 276.221C1642.52 276.429 1637.94 278.717 1634.82 283.085C1631.7 287.244 1629.52 292.132 1628.27 297.748C1627.02 303.156 1626.29 307.94 1626.08 312.1C1625.88 316.052 1625.77 318.027 1625.77 318.027ZM1801.25 336.123C1785.65 335.707 1773.48 334.147 1764.75 331.443C1756.01 328.739 1749.77 325.515 1746.03 321.771C1742.49 318.027 1740.31 314.388 1739.48 310.852C1738.64 307.108 1738.23 304.196 1738.23 302.116C1738.23 300.036 1738.54 296.812 1739.16 292.444C1739.79 288.076 1741.76 283.501 1745.09 278.717C1748.42 273.933 1754.14 269.773 1762.25 266.237C1770.57 262.701 1782.32 260.725 1797.51 260.309C1814.15 259.893 1826.94 260.829 1835.88 263.117C1844.82 265.405 1851.17 268.109 1854.91 271.229C1858.86 274.349 1861.26 277.157 1862.09 279.653C1862.92 281.941 1863.34 283.085 1863.34 283.085C1863.34 285.788 1863.02 288.596 1862.4 291.508C1861.78 294.212 1859.9 296.5 1856.78 298.372C1853.87 300.036 1848.78 300.764 1841.5 300.556C1835.67 300.348 1831.31 299.828 1828.39 298.996C1825.48 298.164 1823.3 297.228 1821.84 296.188C1820.59 294.94 1819.24 293.692 1817.79 292.444C1816.54 291.196 1814.56 290.156 1811.86 289.324C1809.36 288.492 1805.31 287.972 1799.69 287.764C1792.83 287.556 1787.63 288.076 1784.09 289.324C1780.76 290.364 1778.47 291.716 1777.23 293.38C1776.19 295.044 1775.56 296.5 1775.35 297.748C1775.35 298.788 1775.35 299.308 1775.35 299.308C1775.35 299.308 1775.56 300.14 1775.98 301.804C1776.6 303.468 1778.68 305.132 1782.22 306.796C1785.96 308.46 1792.62 309.396 1802.19 309.604C1820.28 310.228 1834.11 311.996 1843.68 314.908C1853.46 317.611 1860.32 320.835 1864.27 324.579C1868.43 328.323 1870.82 332.067 1871.45 335.811C1872.28 339.347 1872.7 342.155 1872.7 344.235C1872.7 346.315 1871.97 349.538 1870.51 353.906C1869.26 358.274 1866.46 362.85 1862.09 367.634C1857.72 372.418 1850.96 376.578 1841.81 380.113C1832.87 383.649 1820.8 385.625 1805.62 386.041C1789.19 386.457 1776.39 385.521 1767.24 383.233C1758.3 380.945 1751.85 378.242 1747.9 375.122C1744.16 372.002 1741.87 369.298 1741.04 367.01C1740.2 364.514 1739.79 363.266 1739.79 363.266C1739.79 360.354 1740.1 357.546 1740.72 354.842C1741.56 352.138 1743.43 349.954 1746.34 348.29C1749.46 346.419 1754.56 345.587 1761.63 345.795C1767.66 346.003 1772.03 346.523 1774.73 347.354C1777.64 348.186 1779.83 349.226 1781.28 350.474C1782.74 351.514 1784.09 352.658 1785.34 353.906C1786.59 355.154 1788.56 356.194 1791.27 357.026C1793.97 357.858 1798.03 358.378 1803.43 358.586C1810.3 358.794 1815.39 358.378 1818.72 357.338C1822.26 356.09 1824.65 354.634 1825.9 352.97C1827.15 351.306 1827.77 349.954 1827.77 348.914C1827.77 347.666 1827.77 347.043 1827.77 347.043C1827.77 347.043 1827.56 346.211 1827.15 344.547C1826.73 342.675 1824.65 340.907 1820.91 339.243C1817.37 337.371 1810.82 336.331 1801.25 336.123Z" fill="url(#paint2_linear_43_2)"/>
<path d="M1342.04 490.255L1345.26 492.974C1343.32 497.821 1340.75 501.805 1337.55 504.924C1334.34 508.044 1331.14 509.603 1327.94 509.603C1324.73 509.603 1322.43 508.571 1321.04 506.505C1319.69 504.44 1319.02 501.826 1319.02 498.665C1319.02 495.503 1319.99 490.424 1321.93 483.426C1323.91 476.428 1326.06 469.705 1328.38 463.255C1334.66 446.057 1337.8 435.012 1337.8 430.123C1337.8 427.298 1336.89 425.886 1335.08 425.886C1327.87 425.886 1318.89 437.499 1308.14 460.726C1303.8 470.084 1300.39 477.946 1297.9 484.311C1292.76 497.632 1289.68 505.578 1288.67 508.149H1274.57L1280.39 492.974C1287.3 475.396 1292.38 459.061 1295.62 443.97C1296.89 438.237 1297.52 433.642 1297.52 430.186C1297.52 424.917 1296.13 422.282 1293.35 422.282C1290.57 422.282 1287.43 424.411 1283.93 428.668C1280.43 432.884 1277.08 438.174 1273.87 444.539C1270.67 450.904 1267.47 457.796 1264.26 465.216C1261.06 472.635 1258.28 479.527 1255.92 485.892C1250.48 500.73 1247.67 508.149 1247.51 508.149H1235.11L1242.19 488.358C1248.52 472.044 1252.37 459.209 1253.77 449.851C1254.44 445.509 1254.78 441.083 1254.78 436.572C1254.78 432.062 1253.62 428.289 1251.3 425.254C1248.98 422.177 1245.8 420.638 1241.75 420.638C1237.7 420.638 1234.21 421.502 1231.26 423.23C1228.35 424.917 1225.94 427.066 1224.05 429.68C1222.15 432.293 1220.55 435.223 1219.24 438.469C1216.75 444.497 1215.51 450.377 1215.51 456.11C1215.51 468.377 1218.31 479.168 1223.92 488.484L1221.2 490.508C1218.17 485.66 1215.85 480.222 1214.25 474.194C1212.69 468.124 1211.91 462.834 1211.91 458.323C1211.91 453.813 1212.24 449.829 1212.92 446.373C1213.59 442.874 1214.71 439.354 1216.27 435.813C1217.83 432.272 1219.75 429.132 1222.02 426.392C1224.34 423.61 1227.29 421.355 1230.88 419.626C1234.5 417.856 1238.3 416.971 1242.26 416.971C1246.22 416.971 1249.55 417.729 1252.25 419.247C1254.99 420.764 1257.14 422.809 1258.7 425.38C1261.77 430.439 1263.31 436.572 1263.31 443.78C1263.31 450.989 1261.06 461.485 1256.55 475.269C1258.11 471.138 1259.25 468.251 1259.96 466.607C1260.72 464.963 1261.61 462.939 1262.62 460.536C1263.67 458.134 1264.49 456.258 1265.08 454.909C1265.67 453.518 1266.58 451.516 1267.8 448.902C1269.03 446.246 1270.08 444.075 1270.96 442.389C1271.89 440.661 1273.05 438.574 1274.44 436.129C1275.88 433.642 1277.18 431.598 1278.36 429.996C1279.54 428.394 1280.89 426.708 1282.41 424.938C1283.97 423.125 1285.47 421.692 1286.9 420.638C1290.14 418.193 1293.28 416.971 1296.32 416.971C1303.49 416.971 1307.07 421.776 1307.07 431.387C1307.07 437.457 1305.87 444.982 1303.46 453.96C1302.66 456.953 1301.55 460.832 1300.11 465.595C1298.72 470.316 1297.94 473.014 1297.77 473.688C1299.63 470.274 1302.05 464.942 1305.05 457.691C1308.04 450.441 1310.67 444.729 1312.95 440.556C1315.23 436.382 1317.5 432.82 1319.78 429.87C1322.05 426.919 1324.77 424.453 1327.94 422.472C1331.14 420.49 1334.3 419.5 1337.42 419.5C1340.58 419.5 1343.07 420.511 1344.88 422.535C1346.74 424.558 1347.66 427.256 1347.66 430.628C1347.66 434.001 1347.07 438.111 1345.89 442.958C1344.71 447.764 1343.26 452.548 1341.53 457.312C1339.8 462.075 1338.07 466.817 1336.34 471.539C1332.09 482.962 1329.81 491.836 1329.52 498.159C1329.52 500.857 1330.21 502.205 1331.6 502.205C1333.04 502.205 1334.72 500.983 1336.66 498.538C1338.6 496.093 1340.39 493.332 1342.04 490.255ZM1374.24 509.161C1372.47 509.161 1371.08 508.613 1370.06 507.517C1369.05 506.421 1368.55 504.924 1368.55 503.027C1368.55 501.088 1369.03 498.475 1370 495.187C1371.01 491.857 1372 488.843 1372.97 486.145C1373.98 483.447 1374.49 481.656 1374.49 480.77C1374.49 479.843 1374.2 479.379 1373.61 479.379C1372.13 479.379 1369.75 482.288 1366.46 488.105L1362.22 485.639C1368.42 475.185 1374.11 469.958 1379.3 469.958C1382.84 469.958 1384.61 472.192 1384.61 476.66C1384.61 477.967 1384.19 480.054 1383.34 482.92L1378.79 495.946C1378.33 497.168 1378.09 498.285 1378.09 499.297C1378.09 500.266 1378.47 500.751 1379.23 500.751C1380.67 500.751 1383.3 498.095 1387.14 492.784L1389.79 495.25C1387.52 499.465 1384.8 502.838 1381.64 505.367C1378.52 507.896 1376.05 509.161 1374.24 509.161ZM1392.26 451.305C1392.26 452.991 1391.69 454.53 1390.55 455.921C1389.41 457.312 1387.87 458.007 1385.94 458.007C1384 458.007 1382.54 457.438 1381.57 456.3C1380.6 455.12 1380.12 453.644 1380.12 451.874C1380.12 450.103 1380.71 448.544 1381.89 447.195C1383.11 445.804 1384.67 445.108 1386.57 445.108C1388.46 445.108 1389.88 445.719 1390.8 446.942C1391.77 448.122 1392.26 449.577 1392.26 451.305ZM1431.35 424.052H1441.6C1439.78 427.172 1437 434.106 1433.25 444.855C1429.5 455.562 1426.06 466.354 1422.94 477.229C1419.87 488.063 1418.33 494.702 1418.33 497.147C1418.33 499.55 1418.62 500.751 1419.21 500.751C1420.98 500.751 1423.74 498.074 1427.5 492.721L1430.15 495.25C1428.3 498.454 1426.29 501.152 1424.14 503.344C1420.35 507.222 1417.27 509.161 1414.91 509.161C1410.61 509.161 1408.46 506.568 1408.46 501.383C1408.46 493.669 1411.01 481.508 1416.11 464.899C1421.26 448.291 1426.34 434.675 1431.35 424.052ZM1459.38 495.693C1459.63 500.54 1462.9 502.964 1469.18 502.964C1471.5 502.964 1473.9 502.311 1476.39 501.004C1478.92 499.655 1480.96 498.074 1482.52 496.262L1485.24 498.032C1481.74 503.892 1476.16 507.475 1468.49 508.781C1466.8 509.034 1465.18 509.161 1463.62 509.161C1459.07 509.161 1455.27 507.664 1452.24 504.671C1449.2 501.636 1447.68 497.948 1447.68 493.606C1447.68 489.264 1449.01 485.26 1451.67 481.592C1454.32 477.883 1457.63 475.016 1461.59 472.993C1465.6 470.97 1469.54 469.958 1473.42 469.958C1477.3 469.958 1480.65 470.843 1483.47 472.614C1486.34 474.384 1487.79 476.766 1487.84 479.759C1487.92 482.752 1487.06 485.344 1485.24 487.536C1483.43 489.686 1481.13 491.33 1478.35 492.468C1472.83 494.702 1467.41 495.819 1462.1 495.819L1459.38 495.693ZM1459 492.215C1463.68 492.046 1467.43 491.309 1470.26 490.002C1473.12 488.653 1475.1 487.136 1476.2 485.449C1477.34 483.721 1477.91 481.93 1477.91 480.075C1477.91 478.178 1477.42 476.787 1476.45 475.902C1475.48 474.974 1474.45 474.51 1473.36 474.51C1470.66 474.51 1468.17 475.459 1465.89 477.356C1463.66 479.211 1461.95 481.487 1460.77 484.185C1459.59 486.84 1459 489.517 1459 492.215ZM1512.51 507.707C1509.77 506.737 1507.81 505.599 1506.63 504.292C1505.45 502.943 1504.86 501.468 1504.86 499.866C1504.86 498.264 1505.3 496.936 1506.19 495.882C1507.08 494.829 1508.23 494.302 1509.67 494.302C1511.14 494.302 1512.43 494.744 1513.52 495.63C1514.66 496.473 1515.23 497.695 1515.23 499.297C1515.23 500.857 1514.26 502.163 1512.32 503.217C1513.93 504.608 1516.37 505.304 1519.66 505.304C1526.78 505.304 1530.34 503.28 1530.34 499.234C1530.34 496.704 1528.09 494.681 1523.58 493.164C1521.72 492.531 1519.85 491.857 1517.95 491.14C1516.1 490.424 1514.47 489.37 1513.08 487.979C1511.69 486.588 1510.93 484.901 1510.81 482.92C1510.81 480.054 1511.75 477.63 1513.65 475.649C1517.23 471.855 1522.59 469.958 1529.71 469.958C1533.21 469.958 1536.31 470.632 1539.01 471.981C1541.7 473.288 1543.05 474.995 1543.05 477.103C1543.05 479.211 1542.51 480.728 1541.41 481.656C1540.36 482.583 1539.11 483.047 1537.68 483.047C1536.25 483.047 1535.02 482.667 1534.01 481.908C1533.04 481.108 1532.56 480.012 1532.56 478.62C1532.56 477.229 1533.38 476.028 1535.02 475.016C1534.01 474.3 1532.26 473.941 1529.77 473.941C1527.29 473.941 1525.05 474.321 1523.07 475.08C1521.09 475.796 1520.1 476.787 1520.1 478.051C1520.1 479.316 1520.82 480.37 1522.25 481.213C1523.73 482.056 1525.5 482.836 1527.56 483.552C1529.63 484.269 1531.69 485.091 1533.76 486.018C1535.82 486.946 1537.57 488.274 1539.01 490.002C1540.48 491.73 1541.22 493.859 1541.22 496.388C1541.22 498.917 1540.19 501.215 1538.12 503.28C1534.2 507.201 1528.85 509.161 1522.06 509.161C1518.48 509.161 1515.3 508.676 1512.51 507.707ZM1607.46 471.349C1611.8 457.86 1616.23 446.563 1620.74 437.457L1628.58 438.09C1628.11 439.439 1626.97 442.684 1625.16 447.827C1621.24 459.166 1618.71 467.007 1617.57 471.349H1627.5L1626.49 475.522H1616.25C1612.37 487.494 1610.43 494.786 1610.43 497.4C1610.43 499.971 1610.68 501.257 1611.19 501.257C1611.74 501.257 1612.22 501.152 1612.64 500.941C1613.78 500.309 1616.23 497.231 1619.98 491.709L1622.57 494.049C1619.75 499.191 1616.84 503.006 1613.84 505.493C1610.85 507.938 1608.38 509.161 1606.45 509.161C1604.51 509.161 1603.03 508.486 1602.02 507.137C1601.05 505.789 1600.57 504.06 1600.57 501.953C1600.57 496.599 1602.44 487.789 1606.19 475.522H1599.55L1600.57 471.349H1607.46ZM1641.49 493.1C1641.49 489.939 1642.25 486.904 1643.77 483.995C1645.33 481.044 1647.33 478.557 1649.78 476.534C1655.17 472.15 1660.67 469.958 1666.28 469.958C1671.89 469.958 1676.48 471.454 1680.06 474.447C1683.65 477.44 1685.44 481.192 1685.44 485.702C1685.44 490.171 1684.2 494.196 1681.71 497.779C1679.26 501.362 1676.02 504.166 1671.97 506.189C1667.92 508.17 1663.5 509.161 1658.69 509.161C1653.93 509.161 1649.86 507.664 1646.49 504.671C1643.16 501.636 1641.49 497.779 1641.49 493.1ZM1662.17 505.241C1664.11 505.241 1665.92 504.608 1667.61 503.344C1669.34 502.079 1670.64 500.435 1671.53 498.412C1673.26 494.534 1674.12 490.529 1674.12 486.398C1674.12 482.267 1673.36 479.147 1671.84 477.04C1670.33 474.89 1668.18 473.815 1665.39 473.815C1662.61 473.815 1659.85 475.628 1657.11 479.253C1654.41 482.878 1653.06 487.494 1653.06 493.1C1653.06 501.194 1656.1 505.241 1662.17 505.241ZM1741.5 517.444C1739.73 515.969 1738.84 514.599 1738.84 513.334C1738.84 512.069 1739.35 511.121 1740.36 510.489L1748.01 502.964C1743.54 499.213 1741.31 494.723 1741.31 489.496C1741.31 484.227 1743.6 479.59 1748.2 475.585C1752.84 471.581 1758.04 469.578 1763.82 469.578C1765.12 469.578 1766.11 469.621 1766.79 469.705C1767.13 466.501 1768.69 463.487 1771.47 460.663C1774.29 457.796 1777.81 456.363 1782.03 456.363C1786.28 456.363 1788.41 458.26 1788.41 462.054C1788.41 463.698 1787.93 465.005 1786.96 465.974C1786.03 466.902 1784.91 467.365 1783.61 467.365C1782.3 467.365 1781.14 466.965 1780.13 466.164C1779.12 465.363 1778.42 464.246 1778.04 462.813C1775.51 463.487 1773.47 464.583 1771.91 466.101C1770.39 467.576 1769.63 468.904 1769.63 470.084C1773.01 471.307 1775.79 473.414 1777.98 476.407C1780.17 479.358 1781.27 482.435 1781.27 485.639C1781.27 491.161 1779.06 495.903 1774.63 499.866C1770.2 503.828 1765.21 505.81 1759.64 505.81C1755.98 505.81 1752.96 505.346 1750.6 504.419C1748.11 506.484 1746.87 507.896 1746.87 508.655C1746.87 509.835 1747.9 510.489 1749.97 510.615L1762.49 511.121C1766.75 511.29 1770.08 511.985 1772.48 513.208C1774.88 514.472 1776.08 516.243 1776.08 518.519C1776.08 520.795 1775.43 522.798 1774.12 524.526C1772.82 526.254 1771.03 527.603 1768.75 528.573C1764.41 530.427 1758.93 531.355 1752.31 531.355C1749.02 531.355 1745.99 530.997 1743.2 530.28C1737.77 528.889 1735.05 526.739 1735.05 523.83C1735.05 521.512 1736.75 519.573 1740.17 518.013C1740.67 517.76 1741.12 517.571 1741.5 517.444ZM1757.37 476.597C1755.55 478.41 1754.25 480.517 1753.45 482.92C1752.69 485.281 1752.31 487.41 1752.31 489.306C1752.31 491.161 1752.41 492.742 1752.63 494.049C1752.84 495.313 1753.19 496.599 1753.7 497.906C1754.8 500.688 1756.74 502.079 1759.52 502.079C1762.3 502.079 1764.55 501.109 1766.28 499.17C1769.32 495.84 1770.84 491.056 1770.84 484.817C1770.84 482.414 1770.2 479.99 1768.94 477.546C1767.67 475.058 1765.88 473.815 1763.56 473.815C1761.25 473.815 1759.18 474.742 1757.37 476.597ZM1753.32 527.687C1762.72 527.687 1767.42 526.043 1767.42 522.755C1767.42 519.931 1760.17 518.519 1745.67 518.519C1744.62 518.519 1743.71 519.109 1742.95 520.289C1742.19 521.47 1741.81 522.566 1741.81 523.577C1741.81 525.179 1742.8 526.254 1744.78 526.802C1746.77 527.392 1749.61 527.687 1753.32 527.687ZM1800.57 493.1C1800.57 489.939 1801.33 486.904 1802.85 483.995C1804.41 481.044 1806.41 478.557 1808.85 476.534C1814.25 472.15 1819.75 469.958 1825.36 469.958C1830.96 469.958 1835.56 471.454 1839.14 474.447C1842.73 477.44 1844.52 481.192 1844.52 485.702C1844.52 490.171 1843.27 494.196 1840.79 497.779C1838.34 501.362 1835.1 504.166 1831.05 506.189C1827 508.17 1822.58 509.161 1817.77 509.161C1813.01 509.161 1808.94 507.664 1805.57 504.671C1802.24 501.636 1800.57 497.779 1800.57 493.1ZM1821.25 505.241C1823.19 505.241 1825 504.608 1826.69 503.344C1828.41 502.079 1829.72 500.435 1830.61 498.412C1832.33 494.534 1833.2 490.529 1833.2 486.398C1833.2 482.267 1832.44 479.147 1830.92 477.04C1829.4 474.89 1827.25 473.815 1824.47 473.815C1821.69 473.815 1818.93 475.628 1816.19 479.253C1813.49 482.878 1812.14 487.494 1812.14 493.1C1812.14 501.194 1815.18 505.241 1821.25 505.241Z" fill="#31568F"/>
<path d="M477.627 502.106H1239.08" stroke="#31568F" stroke-width="10.3597" stroke-linecap="round"/>
<defs>
<linearGradient id="paint0_linear_43_2" x1="72.5205" y1="559.804" x2="414.391" y2="-72.1387" gradientUnits="userSpaceOnUse">
<stop stop-color="#74C7F2"/>
<stop offset="1" stop-color="#768DE6"/>
</linearGradient>
<linearGradient id="paint1_linear_43_2" x1="-2.589" y1="122.107" x2="562.015" y2="181.675" gradientUnits="userSpaceOnUse">
<stop stop-color="#77B2EE"/>
<stop offset="1" stop-color="#73CDF3"/>
</linearGradient>
<linearGradient id="paint2_linear_43_2" x1="408.64" y1="342.239" x2="1926.28" y2="299.854" gradientUnits="userSpaceOnUse">
<stop stop-color="#75A4EB"/>
<stop offset="1" stop-color="#2B4F87"/>
</linearGradient>
</defs>
</svg>
